HIERARCHY
ROOT joint_Root
{
	OFFSET 0.0 0.0 0.0
	CHANNELS 6 Xposition Yposition Zposition Zrotation Xrotation Yrotation 
	JOINT Hips
	{
		OFFSET 4.5925 91.4895 -427.239
		CHANNELS 6 Xposition Yposition Zposition Zrotation Xrotation Yrotation 
		JOINT Spine
		{
			OFFSET 15.7357 0.0 0.0
			CHANNELS 6 Xposition Yposition Zposition Zrotation Xrotation Yrotation 
			JOINT Chest
			{
				OFFSET 8.98455 -0.406207 0.0
				CHANNELS 6 Xposition Yposition Zposition Zrotation Xrotation Yrotation 
				JOINT Neck
				{
					OFFSET 16.3773 0.0 0.0
					CHANNELS 6 Xposition Yposition Zposition Zrotation Xrotation Yrotation 
					JOINT Head
					{
						OFFSET 6.45672 0.0 0.0
						CHANNELS 6 Xposition Yposition Zposition Zrotation Xrotation Yrotation 
						End Site
						{
							OFFSET 0.0 0.0 0.0
						}
					}
				}
				JOINT Shoulder_L
				{
					OFFSET 12.9942 -0.242716 4.98039
					CHANNELS 6 Xposition Yposition Zposition Zrotation Xrotation Yrotation 
					JOINT UpperArm_L
					{
						OFFSET 5.34809 0.0 0.0
						CHANNELS 6 Xposition Yposition Zposition Zrotation Xrotation Yrotation 
						JOINT LowerArm_L
						{
							OFFSET 24.3286 1.87007e-05 0.0
							CHANNELS 6 Xposition Yposition Zposition Zrotation Xrotation Yrotation 
							JOINT Hand_L
							{
								OFFSET 22.2916 0.0 0.0
								CHANNELS 6 Xposition Yposition Zposition Zrotation Xrotation Yrotation 
								End Site
								{
									OFFSET 0.0 0.0 0.0
								}
							}
						}
					}
				}
				JOINT Shoulder_R
				{
					OFFSET 12.9945 -0.242716 -4.98039
					CHANNELS 6 Xposition Yposition Zposition Zrotation Xrotation Yrotation 
					JOINT UpperArm_R
					{
						OFFSET -5.34813 0.0 0.0
						CHANNELS 6 Xposition Yposition Zposition Zrotation Xrotation Yrotation 
						JOINT LowerArm_R
						{
							OFFSET -24.3289 0.000322201 0.0
							CHANNELS 6 Xposition Yposition Zposition Zrotation Xrotation Yrotation 
							JOINT Hand_R
							{
								OFFSET -22.2915 -0.000108084 0.0
								CHANNELS 6 Xposition Yposition Zposition Zrotation Xrotation Yrotation 
								End Site
								{
									OFFSET 0.0 0.0 0.0
								}
							}
						}
					}
				}
			}
		}
		JOINT UpperLeg_L
		{
			OFFSET -2.19248 -6.46944 0.0
			CHANNELS 6 Xposition Yposition Zposition Zrotation Xrotation Yrotation 
			JOINT LowerLeg_L
			{
				OFFSET 39.0811 0.0 -1.23785e-05
				CHANNELS 6 Xposition Yposition Zposition Zrotation Xrotation Yrotation 
				JOINT Foot_L
				{
					OFFSET 40.9854 0.0 -1.26872e-05
					CHANNELS 6 Xposition Yposition Zposition Zrotation Xrotation Yrotation 
					JOINT Toes_L
					{
						OFFSET 11.7543 0.0 0.0
						CHANNELS 6 Xposition Yposition Zposition Zrotation Xrotation Yrotation 
						End Site
						{
							OFFSET 0.0 0.0 0.0
						}
					}
				}
			}
		}
		JOINT UpperLeg_R
		{
			OFFSET -2.19251 6.46944 0.0
			CHANNELS 6 Xposition Yposition Zposition Zrotation Xrotation Yrotation 
			JOINT LowerLeg_R
			{
				OFFSET -39.0811 -0.00228153 -0.0401928
				CHANNELS 6 Xposition Yposition Zposition Zrotation Xrotation Yrotation 
				JOINT Foot_R
				{
					OFFSET -40.9854 0.0 0.0
					CHANNELS 6 Xposition Yposition Zposition Zrotation Xrotation Yrotation 
					JOINT Toes_R
					{
						OFFSET -11.7543 0.0 0.0
						CHANNELS 6 Xposition Yposition Zposition Zrotation Xrotation Yrotation 
						End Site
						{
							OFFSET 0.0 0.0 0.0
						}
					}
				}
			}
		}
	}
}
MOTION
Frames:	4
Frame Time:	0.0333333
0.000000 0.000000 0.000000 0.000000 0.000000 -0.000000 0.166344 91.699700 -1.339460 89.648300 -0.252092 5.697940 15.735700 0.000005 -0.000001 82.745600 87.244900 -82.884300 8.984550 -0.406207 -0.000000 -2.300780 -0.683424 -0.291192 16.377300 -0.000001 -0.000001 7.526440 -3.937130 2.401350 6.456720 -0.000001 -0.000000 1.116060 -3.810150 -1.181900 12.994200 -0.242716 4.980390 -83.780500 -12.352000 -63.003600 5.348090 -0.000007 -0.000001 -32.902700 -63.303500 -81.442700 24.328600 0.000019 0.000005 14.838000 14.806100 -46.031600 22.291600 -0.000001 0.000005 22.656300 5.422510 -3.684020 12.994500 -0.242716 -4.980390 94.854700 -11.926400 -67.657600 -5.348130 -0.000001 -0.000004 -56.319600 -55.363700 -104.907000 -24.328900 0.000322 -0.000009 -3.586700 -4.081710 -41.358700 -22.291500 -0.000108 -0.000004 19.254100 5.604820 -11.634500 -2.192480 -6.469440 -0.000000 -176.613000 -10.076100 -3.573260 39.081100 -0.000007 -0.000012 -0.126552 0.255179 26.378600 40.985400 -0.000006 -0.000013 0.662725 5.870700 -67.246400 11.754300 -0.000000 0.000003 -0.000154 -0.001484 -16.633900 -2.192510 6.469440 -0.000001 175.475000 22.032000 177.647000 -39.081100 -0.002282 -0.040193 -0.070679 0.152368 25.901100 -40.985400 0.000008 0.000006 2.524050 10.463400 -67.469700 -11.754300 -0.000006 -0.000006 -0.002914 -0.039621 -18.184400
0.000000 0.000000 0.000000 0.000000 0.000000 -0.000000 0.104796 91.722700 -1.487110 89.626800 -0.399080 5.540410 15.735700 0.000005 -0.000001 83.428900 87.219400 -83.582400 8.984550 -0.406207 -0.000000 -2.242220 -0.622825 -0.319135 16.377300 -0.000001 -0.000001 7.436790 -3.973890 2.447080 6.456720 -0.000001 -0.000000 1.076010 -3.821130 -1.099020 12.994200 -0.242716 4.980390 -83.863400 -12.155300 -62.950500 5.348090 -0.000007 -0.000001 -32.677700 -63.297800 -80.309500 24.328600 0.000019 0.000005 14.195300 13.467700 -47.363600 22.291600 -0.000001 0.000005 22.674000 5.426190 -3.808910 12.994500 -0.242716 -4.980390 94.787100 -11.705300 -67.569900 -5.348130 -0.000001 -0.000004 -56.752000 -55.398900 -104.793000 -24.328900 0.000322 -0.000009 -4.732750 -5.181070 -42.507700 -22.291500 -0.000108 -0.000004 19.415700 5.604940 -11.641700 -2.192480 -6.469440 -0.000000 -176.599000 -10.118600 -3.791270 39.081100 -0.000007 -0.000012 -0.125584 0.254050 26.304700 40.985400 -0.000006 -0.000013 0.601829 5.776080 -67.103300 11.754300 -0.000000 0.000003 -0.000154 -0.001482 -16.633900 -2.192510 6.469440 -0.000001 175.685000 21.877000 177.370000 -39.081100 -0.002282 -0.040193 -0.067843 0.147086 25.815400 -40.985400 0.000008 0.000006 2.501010 10.415100 -67.306400 -11.754300 -0.000006 -0.000006 -0.002878 -0.039210 -18.167700
0.000000 0.000000 0.000000 0.000000 0.000000 -0.000000 0.057119 91.744300 -1.625830 89.635900 -0.492674 5.404470 15.735700 0.000005 -0.000001 83.644400 87.174300 -83.826000 8.984550 -0.406207 -0.000000 -2.150340 -0.609724 -0.374446 16.377300 -0.000001 -0.000001 7.308390 -4.086990 2.508480 6.456720 -0.000001 -0.000000 0.982026 -3.839990 -1.028030 12.994200 -0.242716 4.980390 -83.995000 -11.905900 -62.983400 5.348090 -0.000007 -0.000001 -33.060800 -63.049200 -78.841700 24.328600 0.000019 0.000005 12.980500 11.061300 -50.228400 22.291600 -0.000001 0.000005 22.566300 5.427640 -3.858260 12.994500 -0.242716 -4.980390 94.653800 -11.372100 -67.567400 -5.348130 -0.000001 -0.000004 -55.949600 -55.635600 -102.959000 -24.328900 0.000322 -0.000009 -6.155910 -6.273520 -44.620300 -22.291500 -0.000108 -0.000004 19.908300 5.602320 -11.481900 -2.192480 -6.469440 -0.000000 -176.609000 -10.135800 -3.968180 39.081100 -0.000007 -0.000012 -0.126477 0.256936 26.209000 40.985400 -0.000006 -0.000013 0.545910 5.713380 -66.959900 11.754300 -0.000000 0.000003 -0.000146 -0.001423 -16.631700 -2.192510 6.469440 -0.000001 175.825000 21.779500 177.123000 -39.081100 -0.002282 -0.040193 -0.065486 0.142462 25.776300 -40.985400 0.000008 0.000006 2.644980 10.392600 -67.222300 -11.754300 -0.000006 -0.000006 -0.003092 -0.041638 -18.266500
0.000000 0.000000 0.000000 0.000000 0.000000 -0.000000 0.003057 91.768300 -1.760760 89.632500 -0.600442 5.269960 15.735700 0.000005 -0.000001 83.639300 87.123800 -83.830300 8.984550 -0.406207 -0.000000 -2.050130 -0.620761 -0.393086 16.377300 -0.000001 -0.000001 7.117640 -4.184160 2.590110 6.456720 -0.000001 -0.000000 0.864609 -3.845850 -1.076920 12.994200 -0.242716 4.980390 -84.217900 -11.494300 -63.062500 5.348090 -0.000007 -0.000001 -33.226500 -62.372500 -76.143900 24.328600 0.000019 0.000005 11.183600 7.938450 -55.063800 22.291600 -0.000001 0.000005 22.579100 5.421760 -3.658490 12.994500 -0.242716 -4.980390 94.444200 -10.937400 -67.724600 -5.348130 -0.000001 -0.000004 -54.046700 -55.939400 -99.350200 -24.328900 0.000322 -0.000009 -6.882980 -6.269750 -47.859000 -22.291500 -0.000108 -0.000004 20.175700 5.593830 -10.980200 -2.192480 -6.469440 -0.000000 -176.601000 -10.286600 -4.146710 39.081100 -0.000007 -0.000012 -0.123587 0.252133 26.112600 40.985400 -0.000006 -0.000013 0.521251 5.738200 -66.810500 11.754300 -0.000000 0.000003 -0.000145 -0.001415 -16.631400 -2.192510 6.469440 -0.000001 175.990000 21.613000 176.899000 -39.081100 -0.002282 -0.040193 -0.062484 0.136849 25.677400 -40.985400 0.000008 0.000006 2.599360 10.331900 -67.065100 -11.754300 -0.000006 -0.000006 -0.002964 -0.040196 -18.207800
